<svg width="146" height="45" viewBox="0 0 146 45" fill="none" xmlns="http://www.w3.org/2000/svg">
<g clip-path="url(#clip0_1406_1428)">
<path d="M50.1215 22.2183C50.0792 21.1715 50.2439 20.1267 50.606 19.1442C50.9681 18.1616 51.5205 17.2607 52.2314 16.4935C52.9422 15.7263 53.7974 15.1079 54.7476 14.6741C55.6977 14.2402 56.7241 13.9995 57.7675 13.9658H58.0916C62.1241 13.9658 64.5041 16.3463 65.2078 19.1315L62.7013 19.9727C62.4761 18.9348 61.8867 18.0127 61.0404 17.3747C60.1942 16.7366 59.1476 16.4252 58.0916 16.4971C55.4824 16.4971 52.8652 18.4095 52.8652 22.2659C52.8652 26.1224 55.4191 27.9633 58.1233 27.9633C59.1845 27.9924 60.2248 27.6634 61.0777 27.029C61.9307 26.3946 62.5469 25.4914 62.8278 24.4639L65.2869 25.2575C64.8624 26.8248 63.9183 28.2001 62.6102 29.1565C61.3022 30.1129 59.7083 30.5933 58.0916 30.5184C56.0147 30.5567 54.0077 29.7657 52.5117 28.3194C51.0157 26.8731 50.1531 24.8898 50.1136 22.8055C50.1057 22.6151 50.1136 22.4167 50.1215 22.2183Z" fill="#838383"/>
<path d="M70.1653 30.1534H67.5719V13.9182H70.1653V20.2663C70.5418 19.8181 71.0154 19.4622 71.5498 19.2257C72.0842 18.9891 72.6654 18.8782 73.249 18.9014C75.9294 18.9014 77.2024 20.8297 77.2024 23.234V30.1534H74.7039V23.6942C74.7787 23.1436 74.635 22.5855 74.3037 22.1402C73.9724 21.6949 73.4801 21.3981 72.9327 21.3137C72.7776 21.2977 72.6213 21.2977 72.4662 21.3137C71.8665 21.3137 71.2913 21.5528 70.8672 21.9784C70.4431 22.404 70.2049 22.9812 70.2049 23.5831C70.2009 23.6492 70.2009 23.7155 70.2049 23.7815L70.1653 30.1534Z" fill="#838383"/>
<path d="M83.022 23.9005L85.8052 23.4641C86.4377 23.3848 86.5959 23.0594 86.5959 22.6706C86.5959 21.7501 85.9791 21.0122 84.5401 21.0122C83.9966 20.9681 83.4577 21.1408 83.0403 21.4928C82.6229 21.8449 82.3606 22.3479 82.3104 22.8928V23.0118L79.9383 22.4802C80.136 20.5916 81.8439 18.9094 84.5164 18.9094C87.8689 18.9094 89.1419 20.8138 89.1419 23.0356V28.4553C89.1391 29.0425 89.1841 29.629 89.2763 30.209H86.9042C86.8188 29.7487 86.7843 29.2803 86.8014 28.8124C86.4414 29.3685 85.9424 29.8201 85.3541 30.1223C84.7659 30.4244 84.109 30.5665 83.4489 30.5343C82.5475 30.609 81.6532 30.3218 80.9625 29.7357C80.2717 29.1496 79.8408 28.3124 79.7643 27.4079C79.7643 27.3523 79.7643 27.2968 79.7643 27.2492C79.7248 25.2416 81.156 24.1624 83.022 23.9005ZM86.6117 25.6542V25.1543L83.7731 25.5828C83.3878 25.5951 83.0221 25.7563 82.7524 26.0328C82.4828 26.3094 82.3301 26.6798 82.3262 27.0667C82.3292 27.2584 82.3703 27.4476 82.4469 27.6232C82.5236 27.7988 82.6344 27.9574 82.7727 28.0896C82.9111 28.2218 83.0743 28.325 83.2529 28.3933C83.4314 28.4615 83.6217 28.4934 83.8127 28.487H83.9313C84.2549 28.521 84.5821 28.4904 84.8939 28.397C85.2057 28.3036 85.496 28.1491 85.7481 27.9426C86.0002 27.7361 86.209 27.4816 86.3627 27.1937C86.5163 26.9058 86.6117 26.5902 86.6433 26.2652C86.6546 26.0607 86.6413 25.8555 86.6038 25.6542H86.6117Z" fill="#838383"/>
<path d="M93.5538 13.696C93.7767 13.6929 93.998 13.7339 94.205 13.8169C94.412 13.8998 94.6006 14.023 94.7601 14.1793C94.9195 14.3356 95.0466 14.522 95.134 14.7277C95.2215 14.9335 95.2676 15.1546 95.2696 15.3782C95.2696 15.7131 95.1709 16.0404 94.986 16.3191C94.8011 16.5979 94.5383 16.8155 94.2304 16.9447C93.9226 17.0739 93.5837 17.1089 93.2561 17.0453C92.9285 16.9816 92.627 16.8223 92.3894 16.5871C92.1519 16.352 91.9889 16.0517 91.921 15.7239C91.853 15.3961 91.8832 15.0554 92.0076 14.7447C92.132 14.4341 92.3452 14.1672 92.6203 13.9778C92.8955 13.7884 93.2202 13.6848 93.5538 13.6801V13.696ZM92.2887 30.201V19.2347H94.8822V30.1534L92.2887 30.201Z" fill="#838383"/>
<path d="M100.789 30.1534H98.2031V19.2347H100.725V20.6868C101.054 20.1292 101.527 19.6707 102.093 19.3594C102.659 19.048 103.298 18.8953 103.944 18.9173C106.6 18.9173 107.897 20.8455 107.897 23.2499V30.1534H105.311V23.6942C105.311 22.3532 104.703 21.2661 103.074 21.2661C102.773 21.2682 102.475 21.3297 102.197 21.4473C101.92 21.5649 101.668 21.7361 101.457 21.9513C101.246 22.1665 101.078 22.4213 100.965 22.7013C100.852 22.9813 100.794 23.2809 100.797 23.5831C100.797 23.6704 100.797 23.7577 100.797 23.845L100.789 30.1534Z" fill="#838383"/>
<path d="M111.028 30.1534V13.9182H113.621V30.1534H111.028Z" fill="#838383"/>
<path d="M118.247 13.696C118.581 13.6944 118.907 13.7924 119.186 13.9775C119.464 14.1626 119.681 14.4265 119.809 14.7357C119.938 15.0449 119.972 15.3854 119.907 15.714C119.842 16.0426 119.682 16.3444 119.446 16.5813C119.21 16.8181 118.909 16.9793 118.581 17.0442C118.254 17.1092 117.915 17.0751 117.607 16.9462C117.299 16.8173 117.036 16.5994 116.851 16.3202C116.667 16.0411 116.569 15.7132 116.571 15.3782C116.575 14.9334 116.753 14.5079 117.066 14.1933C117.38 13.8787 117.804 13.7001 118.247 13.696ZM116.974 30.201V19.2347H119.544V30.1534L116.974 30.201Z" fill="#838383"/>
<path d="M125.49 30.1534H122.896V19.2347H125.419V20.6868C125.748 20.1298 126.22 19.6717 126.786 19.3605C127.353 19.0492 127.992 18.8962 128.637 18.9173C131.293 18.9173 132.59 20.8455 132.59 23.2499V30.1534H129.997V23.6942C130.071 23.1436 129.928 22.5855 129.596 22.1402C129.265 21.6949 128.773 21.3981 128.225 21.3137C128.068 21.2978 127.909 21.2978 127.751 21.3137C127.147 21.32 126.57 21.5652 126.145 21.9961C125.72 22.4269 125.482 23.0087 125.482 23.6149C125.474 23.7073 125.474 23.8002 125.482 23.8926L125.49 30.1534Z" fill="#838383"/>
<path d="M141.438 23.845L146 30.1931H142.837L139.675 25.6939L138.338 27.1063V30.1534H135.769V13.9182H138.338V23.6466L142.513 19.2347H145.953L141.438 23.845Z" fill="#838383"/>
<path d="M19.4192 9.52213L30.6311 15.9813V28.9631L19.4509 35.462L8.24685 29.0187V16.0448L19.4192 9.52213ZM19.4192 0L15.3077 2.38053L4.11156 8.90319L0 11.2837V33.7956L4.11156 36.1762L15.3235 42.6353L19.435 45.0159L23.5466 42.6353L34.719 36.1285L38.8305 33.748V11.2044L34.719 8.82384L23.515 2.38053L19.4034 0H19.4192Z" fill="#838383"/>
</g>
<defs>
<clipPath id="clip0_1406_1428">
<rect width="146" height="45" fill="white"/>
</clipPath>
</defs>
</svg>
