<svg width="154" height="21" viewBox="0 0 154 21" fill="none" xmlns="http://www.w3.org/2000/svg">
<g clip-path="url(#clip0_1426_1444)">
<path d="M34.8214 19.6429V4.42319C34.8214 1.98033 32.8632 0 30.4476 0C29.2825 0 28.1655 0.47016 27.3444 1.3062L13.6696 15.23C13.1473 15.7618 13.1514 16.6214 13.6786 17.1481L14.7486 18.2168C17.3661 20.8314 21.579 20.8209 24.1837 18.1932L29.3589 12.9724C29.6046 12.7246 30.0001 12.7178 30.254 12.957C30.5183 13.2059 30.5288 13.6259 30.2774 13.8881L28.5316 15.7089C28.2747 15.9768 28.2807 16.4045 28.5448 16.6651L32.5471 20.6125C33.3954 21.4493 34.8214 20.8414 34.8214 19.6429Z" fill="#838383"/>
<path d="M0 1.40772V16.5606C0 19.0088 1.96248 20.9934 4.38332 20.9934C5.54305 20.9934 6.6555 20.5286 7.47707 19.7009L21.1419 5.93274C21.6688 5.40179 21.667 4.5383 21.1377 4.00965L20.0728 2.9459C17.4554 0.331344 13.2424 0.34187 10.6377 2.96949L5.46248 8.19033C5.21684 8.43816 4.82131 8.44502 4.56744 8.20582C4.30317 7.95679 4.29262 7.53689 4.54406 7.27463L6.29555 5.44782C6.55018 5.18225 6.54696 4.75917 6.28836 4.49758L2.28635 0.450047C1.44266 -0.403243 0 0.201038 0 1.40772Z" fill="#838383"/>
<path d="M69.7958 0.958904C71.7616 0.958904 73.2785 1.5707 74.3468 2.7943C75.4146 3.99293 75.9483 6.0281 75.9483 8.89983V16.9906C75.9483 18.0144 75.6327 18.7885 75.002 19.3129C74.395 19.8123 73.6305 20.0621 72.7084 20.0621C71.7863 20.0621 71.0094 19.8123 70.3783 19.3129C69.7717 18.7885 69.4684 18.0144 69.4684 16.9906V8.75C69.4684 7.75116 69.2981 7.05192 68.9584 6.6524C68.6187 6.25287 68.1215 6.05308 67.4657 6.05308C66.6165 6.05308 65.9371 6.36521 65.4271 6.9895C64.9175 7.61379 64.6625 8.47532 64.6625 9.57403V16.9906C64.6625 18.0144 64.3592 18.7885 63.7527 19.3129C63.1457 19.8123 62.3693 20.0621 61.4226 20.0621C60.5005 20.0621 59.7236 19.8123 59.093 19.3129C58.486 18.7885 58.1827 18.0144 58.1827 16.9906V8.75C58.1827 7.75116 58.0128 7.05192 57.6731 6.6524C57.333 6.25287 56.8357 6.05308 56.1804 6.05308C55.3307 6.05308 54.6513 6.36521 54.1418 6.9895C53.6564 7.61379 53.4136 8.47532 53.4136 9.57403V16.9906C53.4136 18.0144 53.0981 18.7885 52.4669 19.3129C51.8604 19.8123 51.0958 20.0621 50.1733 20.0621C49.2512 20.0621 48.4743 19.8123 47.8436 19.3129C47.2367 18.7885 46.9333 18.0144 46.9333 16.9906V4.03039C46.9333 3.05651 47.2489 2.31985 47.8801 1.82042C48.5353 1.29602 49.3117 1.03382 50.2097 1.03382C51.0594 1.03382 51.7629 1.27105 52.3212 1.7455C52.9036 2.19499 53.2074 2.85673 53.2315 3.73074C54.4209 1.88285 56.241 0.958904 58.6922 0.958904C61.2892 0.958904 63.0246 2.04516 63.8984 4.21768C64.505 3.21882 65.3183 2.43222 66.3373 1.85788C67.3569 1.25856 68.5094 0.958904 69.7958 0.958904Z" fill="#838383"/>
<path d="M93.3807 13.9191C93.9385 13.9191 94.3875 14.1438 94.7277 14.5933C95.0915 15.0428 95.2737 15.6297 95.2737 16.3538C95.2737 17.3527 94.8006 18.1143 93.8538 18.6387C93.0287 19.0632 92.0456 19.4253 90.9049 19.7249C89.7883 19.9996 88.7569 20.137 87.8107 20.137C85.8203 20.137 84.0849 19.7499 82.6045 18.9758C81.1241 18.2017 79.9834 17.0905 79.1824 15.6421C78.3815 14.1938 77.9812 12.4957 77.9812 10.5479C77.9812 8.70004 78.3573 7.05193 79.1096 5.6036C79.8864 4.13028 80.9543 2.99408 82.3131 2.19499C83.6965 1.37093 85.2502 0.958904 86.9733 0.958904C88.6477 0.958904 90.1162 1.33348 91.378 2.08262C92.6403 2.83176 93.6111 3.89305 94.2905 5.26649C94.9945 6.63993 95.3465 8.25056 95.3465 10.0985C95.3465 10.6728 95.2131 11.1223 94.9458 11.4469C94.7031 11.7466 94.3393 11.8964 93.8538 11.8964H84.2429C84.4128 13.095 84.7889 13.9566 85.3713 14.4809C85.9537 15.0054 86.8153 15.2676 87.956 15.2676C88.563 15.2676 89.1212 15.2051 89.6308 15.0803C90.1403 14.9304 90.7109 14.7307 91.3416 14.4809C91.7059 14.3311 92.0579 14.2063 92.3976 14.1064C92.7614 13.9815 93.0893 13.9191 93.3807 13.9191ZM87.1554 5.45377C86.3057 5.45377 85.6263 5.74096 85.1163 6.31529C84.6068 6.86465 84.3035 7.67622 84.2065 8.75H89.9222C89.7765 6.55253 88.8539 5.45377 87.1554 5.45377Z" fill="#838383"/>
<path d="M105.363 20.137C103.737 20.137 102.366 20.0121 101.25 19.7624C100.134 19.5127 99.1504 19.1132 98.3007 18.5638C97.961 18.389 97.6942 18.0893 97.5002 17.6648C97.3057 17.2403 97.2087 16.7659 97.2087 16.2414C97.2087 15.5672 97.3786 15.0178 97.7183 14.5933C98.0826 14.1438 98.5316 13.9191 99.0653 13.9191C99.4296 13.9191 99.7693 13.969 100.085 14.0689C100.4 14.1438 100.789 14.2812 101.25 14.4809C102.027 14.7556 102.706 14.9679 103.288 15.1177C103.895 15.2676 104.66 15.3425 105.582 15.3425C106.237 15.3425 106.747 15.2551 107.111 15.0803C107.5 14.8805 107.694 14.6058 107.694 14.2562C107.694 13.9815 107.597 13.7692 107.402 13.6194C107.232 13.4696 106.893 13.3323 106.383 13.2074C105.873 13.0576 105.012 12.8578 103.798 12.6081C101.638 12.1836 100.073 11.5468 99.1017 10.6978C98.1555 9.82378 97.6819 8.60017 97.6819 7.02695C97.6819 5.87827 98.022 4.84199 98.7014 3.91802C99.4054 2.99408 100.364 2.2699 101.578 1.7455C102.791 1.2211 104.15 0.958904 105.655 0.958904C106.747 0.958904 107.803 1.09625 108.822 1.37093C109.866 1.64562 110.788 2.03268 111.589 2.53211C112.341 2.98159 112.718 3.70576 112.718 4.70462C112.718 5.40381 112.535 5.99066 112.172 6.46512C111.807 6.93959 111.358 7.17677 110.824 7.17677C110.193 7.17677 109.441 6.96452 108.567 6.54001C107.985 6.26534 107.463 6.06555 107.002 5.9407C106.565 5.79087 106.043 5.71598 105.436 5.71598C104.83 5.71598 104.356 5.81585 104.016 6.01564C103.677 6.19045 103.507 6.45261 103.507 6.80223C103.507 7.20175 103.737 7.51393 104.199 7.73864C104.684 7.96341 105.631 8.21311 107.038 8.48779C109.392 8.9123 111.055 9.56157 112.026 10.4356C112.997 11.2846 113.482 12.5207 113.482 14.1438C113.482 15.9668 112.742 17.4276 111.261 18.5263C109.805 19.6001 107.839 20.137 105.363 20.137Z" fill="#838383"/>
<path d="M124.389 20.137C122.424 20.137 120.688 19.7499 119.183 18.9758C117.703 18.1767 116.55 17.053 115.725 15.6047C114.924 14.1563 114.523 12.4583 114.523 10.5105C114.523 8.56273 114.924 6.87712 115.725 5.45377C116.55 4.00542 117.703 2.89419 119.183 2.12007C120.664 1.34596 122.399 0.958904 124.389 0.958904C126.379 0.958904 128.115 1.34596 129.595 2.12007C131.076 2.89419 132.217 4.00542 133.017 5.45377C133.843 6.87712 134.255 8.56273 134.255 10.5105C134.255 12.4583 133.843 14.1563 133.017 15.6047C132.217 17.053 131.076 18.1767 129.595 18.9758C128.115 19.7499 126.379 20.137 124.389 20.137ZM124.389 15.1552C126.695 15.1552 127.848 13.6069 127.848 10.5105C127.848 7.41401 126.695 5.86581 124.389 5.86581C122.084 5.86581 120.931 7.41401 120.931 10.5105C120.931 13.6069 122.084 15.1552 124.389 15.1552Z" fill="#838383"/>
<path d="M147.665 0.958904C149.801 0.958904 151.391 1.62065 152.434 2.94413C153.478 4.24265 154 6.22789 154 8.89983V16.9906C154 17.9395 153.708 18.6887 153.126 19.238C152.544 19.7874 151.755 20.0621 150.76 20.0621C149.765 20.0621 148.976 19.7874 148.393 19.238C147.811 18.6887 147.52 17.9395 147.52 16.9906V9.19949C147.52 8.10073 147.326 7.30167 146.937 6.80223C146.573 6.30278 146.015 6.05308 145.263 6.05308C144.292 6.05308 143.515 6.37772 142.933 7.02695C142.374 7.65124 142.095 8.5003 142.095 9.57403V16.9906C142.095 17.9395 141.804 18.6887 141.221 19.238C140.639 19.7874 139.85 20.0621 138.855 20.0621C137.86 20.0621 137.071 19.7874 136.489 19.238C135.906 18.6887 135.615 17.9395 135.615 16.9906V4.03039C135.615 3.15639 135.919 2.44471 136.525 1.89533C137.132 1.32099 137.921 1.03382 138.892 1.03382C139.814 1.03382 140.542 1.29602 141.076 1.82042C141.634 2.34482 141.913 3.03154 141.913 3.88057C142.544 2.93165 143.358 2.20748 144.353 1.70805C145.348 1.20862 146.452 0.958904 147.665 0.958904Z" fill="#838383"/>
</g>
<defs>
<clipPath id="clip0_1426_1444">
<rect width="154" height="21" fill="white"/>
</clipPath>
</defs>
</svg>
