<svg width="154" height="31" viewBox="0 0 154 31" fill="none" xmlns="http://www.w3.org/2000/svg">
<g clip-path="url(#clip0_1426_1441)">
<path d="M11.1153 5.76394L16.2602 16.3489L25.9278 11.9705L21.5437 27.219L10.8067 27.7973L3.709 15.0738L11.1153 5.76394ZM11.7482 0L1.29945 13.1343L0 14.7684L1.01741 16.5928L8.11512 29.3162L9.05412 30.9999L10.972 30.8969L21.709 30.3186L23.8993 30.2011L24.508 28.0821L28.8923 12.8336L30.746 6.38586L24.6598 9.14251L17.7201 12.2846L13.888 4.40159L11.7482 0Z" fill="#838383"/>
<path d="M38.7271 25.1219V4.22214H46.9266C48.5031 4.22214 49.8461 4.52487 50.9554 5.13033C52.0647 5.7291 52.9107 6.56249 53.4923 7.63057C54.0813 8.6919 54.3755 9.91653 54.3755 11.3044C54.3755 12.6922 54.0775 13.9168 53.4822 14.9782C52.8868 16.0395 52.0243 16.8661 50.8948 17.4579C49.7716 18.0499 48.4116 18.3458 46.8149 18.3458H41.589V14.8047H46.1046C46.9506 14.8047 47.6471 14.6584 48.1951 14.3659C48.75 14.0665 49.1624 13.6549 49.4331 13.1311C49.7104 12.6004 49.8493 11.9915 49.8493 11.3044C49.8493 10.6104 49.7104 10.005 49.4331 9.48789C49.1624 8.96405 48.75 8.55923 48.1951 8.27349C47.6402 7.981 46.9368 7.83469 46.0844 7.83469H43.1214V25.1219H38.7271ZM62.5107 25.428C60.9347 25.428 59.5716 25.0913 58.4213 24.4178C57.2779 23.7374 56.3952 22.7918 55.7727 21.5808C55.1502 20.363 54.8389 18.9513 54.8389 17.3457C54.8389 15.7265 55.1502 14.3114 55.7727 13.1005C56.3952 11.8826 57.2779 10.937 58.4213 10.2635C59.5716 9.58309 60.9347 9.24296 62.5107 9.24296C64.0873 9.24296 65.447 9.58309 66.5908 10.2635C67.7404 10.937 68.6264 11.8826 69.2495 13.1005C69.872 14.3114 70.1832 15.7265 70.1832 17.3457C70.1832 18.9513 69.872 20.363 69.2495 21.5808C68.6264 22.7918 67.7404 23.7374 66.5908 24.4178C65.447 25.0913 64.0873 25.428 62.5107 25.428ZM62.5314 22.0604C63.2483 22.0604 63.8472 21.8563 64.3274 21.4481C64.8076 21.0331 65.1698 20.4684 65.4131 19.7541C65.6637 19.0397 65.7889 18.2268 65.7889 17.3151C65.7889 16.4035 65.6637 15.5904 65.4131 14.8761C65.1698 14.1618 64.8076 13.5971 64.3274 13.1821C63.8472 12.7671 63.2483 12.5596 62.5314 12.5596C61.8073 12.5596 61.1986 12.7671 60.7043 13.1821C60.2175 13.5971 59.8488 14.1618 59.5988 14.8761C59.3551 15.5904 59.2332 16.4035 59.2332 17.3151C59.2332 18.2268 59.3551 19.0397 59.5988 19.7541C59.8488 20.4684 60.2175 21.0331 60.7043 21.4481C61.1986 21.8563 61.8073 22.0604 62.5314 22.0604ZM75.8882 4.22214V25.1219H71.5651V4.22214H75.8882ZM80.591 31C80.043 31 79.5295 30.9557 79.0486 30.8673C78.575 30.7856 78.1828 30.6802 77.871 30.551L78.8457 27.3058C79.3533 27.4622 79.8094 27.5473 80.2152 27.5609C80.6282 27.5745 80.9831 27.4792 81.2813 27.2751C81.5854 27.0711 81.8326 26.7241 82.0219 26.2343L82.2757 25.5709L76.6842 9.44708H81.2304L84.4574 20.9583H84.6199L87.8769 9.44708H92.4539L86.3959 26.8159C86.1049 27.6595 85.7088 28.3943 85.2084 29.0202C84.7145 29.6529 84.0888 30.1394 83.3313 30.4795C82.5738 30.8265 81.6604 31 80.591 31ZM93.3183 25.1219V4.22214H97.6415V12.08H97.7733C97.9631 11.6582 98.2372 11.2295 98.5954 10.7941C98.9614 10.3519 99.4344 9.9845 100.016 9.69201C100.605 9.39262 101.336 9.24296 102.208 9.24296C103.345 9.24296 104.394 9.54228 105.354 10.141C106.315 10.7329 107.083 11.6275 107.658 12.8249C108.233 14.0155 108.52 15.5088 108.52 17.3049C108.52 19.0533 108.24 20.5296 107.678 21.7339C107.124 22.9313 106.366 23.8395 105.405 24.4586C104.451 25.0709 103.382 25.377 102.198 25.377C101.36 25.377 100.645 25.2376 100.057 24.9586C99.4749 24.6797 98.9986 24.3293 98.6267 23.9075C98.2541 23.4789 97.9697 23.0469 97.7733 22.6115H97.5808V25.1219H93.3183ZM97.5508 17.2845C97.5508 18.2165 97.6787 19.0295 97.9364 19.7235C98.1934 20.4174 98.5653 20.9583 99.0527 21.3461C99.5394 21.727 100.132 21.9176 100.828 21.9176C101.532 21.9176 102.128 21.7236 102.614 21.3359C103.102 20.9413 103.47 20.397 103.72 19.7031C103.977 19.0023 104.106 18.1961 104.106 17.2845C104.106 16.3797 103.981 15.5837 103.731 14.8965C103.48 14.2094 103.112 13.6719 102.624 13.2841C102.137 12.8963 101.539 12.7024 100.828 12.7024C100.125 12.7024 99.5297 12.8896 99.0423 13.2637C98.5621 13.6379 98.1934 14.1686 97.9364 14.8557C97.6787 15.5429 97.5508 16.3525 97.5508 17.2845ZM114.421 25.4179C113.427 25.4179 112.54 25.2444 111.762 24.8974C110.984 24.5436 110.369 24.0232 109.915 23.336C109.469 22.6421 109.246 21.7781 109.246 20.744C109.246 19.8731 109.404 19.1418 109.723 18.5499C110.041 17.958 110.473 17.4818 111.021 17.1212C111.569 16.7606 112.192 16.4885 112.889 16.3048C113.593 16.1211 114.33 15.9919 115.101 15.917C116.008 15.8218 116.738 15.7333 117.293 15.6517C117.848 15.5632 118.25 15.434 118.5 15.2639C118.751 15.0938 118.876 14.8421 118.876 14.5087V14.4475C118.876 13.8012 118.673 13.3011 118.267 12.9474C117.868 12.5936 117.3 12.4167 116.562 12.4167C115.784 12.4167 115.165 12.5902 114.706 12.9372C114.245 13.2773 113.941 13.706 113.792 14.223L109.793 13.8964C109.996 12.944 110.396 12.1207 110.991 11.4268C111.586 10.7261 112.354 10.1886 113.295 9.81444C114.242 9.4335 115.338 9.24296 116.583 9.24296C117.449 9.24296 118.278 9.34505 119.069 9.5491C119.867 9.75322 120.574 10.0696 121.19 10.4982C121.812 10.9268 122.303 11.4778 122.661 12.1514C123.02 12.8181 123.199 13.6175 123.199 14.5495V25.1219H119.099V22.9482H118.978C118.727 23.4381 118.393 23.8701 117.972 24.2443C117.554 24.6116 117.05 24.9009 116.461 25.1117C115.872 25.3158 115.192 25.4179 114.421 25.4179ZM115.659 22.4175C116.295 22.4175 116.857 22.2917 117.343 22.04C117.831 21.7815 118.213 21.4346 118.49 20.9991C118.768 20.5637 118.907 20.0704 118.907 19.5194V17.856C118.771 17.9444 118.585 18.0261 118.348 18.1009C118.119 18.1689 117.858 18.2335 117.567 18.2947C117.276 18.3493 116.985 18.4002 116.694 18.4478C116.403 18.4887 116.14 18.5261 115.902 18.5601C115.395 18.6349 114.952 18.754 114.573 18.9173C114.195 19.0806 113.901 19.3017 113.69 19.5806C113.48 19.8527 113.376 20.1929 113.376 20.6011C113.376 21.193 113.589 21.6454 114.015 21.9584C114.449 22.2645 114.997 22.4175 115.659 22.4175ZM138.093 13.9168L134.136 14.1618C134.068 13.8216 133.922 13.5154 133.699 13.2433C133.476 12.9644 133.182 12.7432 132.816 12.5799C132.458 12.4099 132.028 12.3248 131.528 12.3248C130.858 12.3248 130.293 12.4677 129.833 12.7535C129.373 13.0324 129.143 13.4066 129.143 13.876C129.143 14.2502 129.292 14.5666 129.589 14.8251C129.887 15.0836 130.398 15.2911 131.121 15.4476L133.943 16.019C135.458 16.332 136.588 16.8355 137.333 17.5294C138.076 18.2234 138.448 19.135 138.448 20.2643C138.448 21.2917 138.147 22.1931 137.546 22.9687C136.95 23.7442 136.131 24.3497 135.089 24.7851C134.054 25.2138 132.86 25.428 131.507 25.428C129.444 25.428 127.8 24.9961 126.576 24.132C125.358 23.2612 124.644 22.0774 124.434 20.5807L128.686 20.3562C128.814 20.9889 129.126 21.472 129.619 21.8053C130.114 22.1319 130.747 22.2952 131.517 22.2952C132.275 22.2952 132.884 22.1489 133.344 21.8563C133.811 21.557 134.048 21.1726 134.054 20.7032C134.048 20.3086 133.882 19.9854 133.557 19.7337C133.232 19.4752 132.732 19.2779 132.056 19.1418L129.356 18.6009C127.834 18.2947 126.701 17.7641 125.956 17.009C125.219 16.2538 124.85 15.2911 124.85 14.121C124.85 13.1141 125.121 12.2466 125.662 11.5187C126.21 10.7907 126.978 10.2295 127.966 9.83484C128.96 9.44026 130.124 9.24296 131.457 9.24296C133.425 9.24296 134.975 9.66137 136.104 10.4982C137.241 11.335 137.903 12.4745 138.093 13.9168ZM146.845 25.428C145.242 25.428 143.862 25.1015 142.705 24.4484C141.555 23.7885 140.669 22.8564 140.046 21.6523C139.424 20.4412 139.112 19.0091 139.112 17.3559C139.112 15.7436 139.424 14.3285 140.046 13.1106C140.669 11.8929 141.545 10.9438 142.675 10.2635C143.811 9.58309 145.144 9.24296 146.673 9.24296C147.702 9.24296 148.659 9.40968 149.544 9.74299C150.438 10.0696 151.216 10.5628 151.879 11.2227C152.549 11.8826 153.07 12.7127 153.442 13.7127C153.814 14.7061 154 15.8694 154 17.2028V18.3968H140.838V15.7027H149.931C149.931 15.0768 149.795 14.5224 149.524 14.0393C149.254 13.5563 148.878 13.1787 148.398 12.9066C147.924 12.6276 147.373 12.4882 146.744 12.4882C146.088 12.4882 145.506 12.6412 144.999 12.9474C144.498 13.2467 144.106 13.6515 143.821 14.1618C143.537 14.6652 143.392 15.2265 143.385 15.8456V18.407C143.385 19.1826 143.527 19.8527 143.811 20.4174C144.102 20.9821 144.511 21.4175 145.039 21.7236C145.567 22.0298 146.193 22.1829 146.917 22.1829C147.397 22.1829 147.837 22.1148 148.236 21.9788C148.635 21.8427 148.976 21.6386 149.261 21.3665C149.544 21.0944 149.761 20.761 149.91 20.3664L153.909 20.6317C153.705 21.5978 153.289 22.4414 152.661 23.1626C152.038 23.8769 151.233 24.4348 150.245 24.8362C149.265 25.2307 148.131 25.428 146.845 25.428Z" fill="#838383"/>
</g>
<defs>
<clipPath id="clip0_1426_1441">
<rect width="154" height="31" fill="white"/>
</clipPath>
</defs>
</svg>
