<svg width="127" height="42" viewBox="0 0 127 42" fill="none" xmlns="http://www.w3.org/2000/svg">
<path d="M63.7794 0C63.8026 5.82103 63.8026 11.6421 63.8026 17.4945C63.715 17.4945 63.6362 17.4945 63.5573 17.4945C62.5251 17.4945 61.4926 17.4829 60.4608 17.5032C60.2222 17.5078 60.0877 17.4221 59.9632 17.2494C58.9772 15.8826 57.9939 14.5137 57.0001 13.1526C56.114 11.939 55.2115 10.7373 54.3237 9.5249C53.5414 8.45646 52.7694 7.38048 51.9934 6.30741C51.9653 6.26858 51.9434 6.22528 51.9186 6.18406C51.9004 6.19548 51.8821 6.20691 51.8639 6.21834C51.8639 9.96869 51.8639 13.719 51.8639 17.4819C50.6012 17.4819 49.359 17.4819 48.0923 17.4819C48.0923 11.6678 48.0923 5.85712 48.0923 0.0232264C49.3984 1.47699e-09 50.7045 0 52.0339 0.017917C52.4978 0.638053 52.9361 1.24196 53.3795 1.84209C54.01 2.69551 54.6469 3.54429 55.2763 4.3985C55.8954 5.23866 56.5069 6.08442 57.1249 6.92536C57.8956 7.97397 58.669 9.02058 59.4425 10.0671C59.6246 10.3134 59.8117 10.556 60.0361 10.8526C60.0361 7.18225 60.0361 3.59113 60.0361 0C61.2761 0 62.5162 0 63.7794 0Z" fill="#838383"/>
<path d="M27.5019 1.33289e-09C27.8805 0.195932 28.2528 0.366784 28.588 0.59265C29.4769 1.19164 29.9863 2.04996 30.201 3.08939C30.4452 4.27165 30.1978 5.36009 29.5039 6.33301C28.8537 7.24471 27.953 7.76627 26.8387 7.93364C25.9407 8.06851 25.081 7.94818 24.2915 7.52286C23.0951 6.87831 22.3842 5.86952 22.1677 4.51178C22.0377 3.69658 22.1558 2.91664 22.4995 2.18865C22.9973 1.13438 23.8065 0.395278 24.9411 0.017367C25.7915 -2.0087e-07 26.6351 -1.96905e-07 27.5019 1.33289e-09Z" fill="#838383"/>
<path d="M22.9782 11.8819C23.5864 12.517 24.324 12.8276 25.1717 12.942C26.0855 13.0654 26.9526 12.9425 27.7724 12.5343C28.3358 12.2539 28.7734 11.8129 29.167 11.3279C29.2136 11.2705 29.2671 11.2185 29.3195 11.166C29.9499 10.535 30.5834 9.90715 31.2102 9.27263C31.5508 8.92782 31.8777 8.56954 32.2151 8.22144C32.8661 7.54966 33.65 7.09977 34.5797 6.99987C35.6099 6.88918 36.5811 7.10843 37.4295 7.74764C38.192 8.32209 38.696 9.06886 38.8899 10.0033C39.0598 10.8221 39.0164 11.6295 38.6874 12.4161C38.4706 12.9343 38.1523 13.3761 37.7639 13.7697C36.9576 14.5867 36.1391 15.3918 35.331 16.2071C34.0539 17.4957 32.7803 18.7878 31.5068 20.08C30.5695 21.031 29.6273 21.9774 28.7015 22.9396C28.1301 23.5336 27.829 24.2576 27.7173 25.0772C27.5989 25.9455 27.7437 26.7589 28.1621 27.5158C28.3441 27.8451 28.5716 28.1631 28.8342 28.4316C29.9715 29.5949 31.1264 30.7409 32.281 31.8872C32.8995 32.5013 33.3387 33.2142 33.5086 34.0743C33.6538 34.8097 33.5599 35.5322 33.2962 36.2262C32.9946 37.0199 32.4683 37.6471 31.759 38.1085C31.2805 38.4196 30.748 38.5822 30.1767 38.6654C29.4089 38.7773 28.6867 38.6463 27.9986 38.3383C27.665 38.189 27.335 37.9793 27.0764 37.7233C24.799 35.4692 22.536 33.2005 20.2734 30.9316C19.5288 30.1849 18.79 29.4322 18.0625 28.6689C17.3837 27.9567 16.5846 27.5164 15.5941 27.3973C14.5556 27.2725 13.5932 27.4359 12.7103 28.0034C12.5543 28.1037 12.4099 28.228 12.278 28.3591C11.2472 29.3839 10.2208 30.4131 9.19303 31.4409C8.86975 31.7642 8.55529 32.0969 8.22119 32.4086C7.68119 32.9124 7.03699 33.1921 6.30521 33.3102C5.46312 33.4461 4.66538 33.3126 3.91736 32.9433C3.05838 32.5192 2.41437 31.8528 2.07103 30.9524C1.64181 29.8268 1.67233 28.6922 2.21005 27.6056C2.3831 27.2559 2.62492 26.921 2.90027 26.644C5.95676 23.5689 9.0241 20.5045 12.0937 17.4424C12.6275 16.9099 12.945 16.2681 13.0979 15.545C13.313 14.5284 13.1896 13.5452 12.7009 12.6236C12.4309 12.1143 12.049 11.6911 11.5902 11.3396C11.5576 11.3146 11.5288 11.2847 11.4993 11.256C10.8737 10.6473 10.2493 10.0374 9.62248 9.43003C9.22098 9.04101 8.81314 8.65851 8.41293 8.26817C7.5009 7.37861 7.07705 6.29027 7.21394 5.02815C7.38855 3.41821 8.47261 2.03439 10.1651 1.6363C11.0826 1.4205 11.9769 1.5086 12.8165 1.92909C13.173 2.10764 13.5085 2.35295 13.8044 2.62198C14.3171 3.0881 14.7936 3.59429 15.2817 4.08725C16.7151 5.53492 18.1475 6.98367 19.5789 8.43331C20.7089 9.57772 21.8369 10.7241 22.9782 11.8819ZM22.9387 23.5422C23.0095 23.4882 23.0849 23.4393 23.1503 23.3794C24.3267 22.3036 24.8872 21.003 24.602 19.3941C24.3573 18.0143 23.5794 17.0166 22.3676 16.3608C21.653 15.9741 20.8737 15.7858 20.055 15.9143C19.6284 15.9813 19.1839 16.0469 18.7948 16.2197C17.5604 16.7681 16.7287 17.6897 16.3554 19.0122C16.1959 19.5771 16.1649 20.1556 16.2428 20.7145C16.4037 21.8681 16.9708 22.8194 17.9162 23.518C18.9469 24.2797 20.1016 24.4944 21.3503 24.2464C21.9202 24.1332 22.4318 23.8852 22.9387 23.5422Z" fill="#838383"/>
<path d="M66.0824 35.435C66.0824 37.2095 66.0824 38.9592 66.0824 40.7234C64.8783 40.7234 63.6855 40.7234 62.4761 40.7234C62.4761 36.6907 62.4761 32.6558 62.4761 28.6209C62.4564 28.6148 62.4367 28.6086 62.4171 28.6025C62.3174 28.8534 62.2141 29.1029 62.1188 29.3554C61.6272 30.6586 61.1348 31.9614 60.6483 33.2665C60.2091 34.4448 59.7802 35.627 59.341 36.8053C58.8656 38.0807 58.3851 39.3542 57.899 40.6255C57.8788 40.6783 57.7809 40.7316 57.7181 40.7329C57.2806 40.7422 56.8427 40.7433 56.4053 40.7317C56.3422 40.7301 56.2471 40.6592 56.2244 40.5987C55.539 38.7731 54.8629 36.9441 54.1811 35.1172C53.5411 33.4022 52.8964 31.6889 52.2535 29.9749C52.1026 29.5724 51.9521 29.1697 51.798 28.7684C51.7764 28.7123 51.7355 28.6636 51.669 28.5553C51.669 32.6499 51.669 36.6796 51.669 40.7236C50.4726 40.7236 49.2963 40.7236 48.1062 40.7236C48.1062 35.0064 48.1062 29.2878 48.1062 23.555C49.7603 23.555 51.4163 23.555 53.0712 23.555C54.3912 26.87 55.7121 30.1877 57.0591 33.5706C57.1919 33.2631 57.3063 33.0152 57.4069 32.7617C57.8064 31.7556 58.2012 30.7477 58.5985 29.7407C59.1273 28.4005 59.6554 27.0599 60.1868 25.7207C60.457 25.0398 60.7308 24.3602 61.0129 23.6842C61.0392 23.621 61.1371 23.547 61.2021 23.5467C62.8195 23.5391 64.4369 23.5408 66.0824 23.5408C66.0824 27.5055 66.0824 31.4579 66.0824 35.435Z" fill="#838383"/>
<path d="M78.1624 15.6278C78.26 15.7844 78.3469 15.926 78.432 16.0647C77.4422 16.9355 76.2852 17.3992 75.0227 17.6477C74.2839 17.7932 73.5392 17.8826 72.7917 17.8344C71.2562 17.7354 69.8352 17.3116 68.6229 16.3006C67.5007 15.3648 66.8163 14.1813 66.5345 12.7624C66.445 12.3121 66.4172 11.8479 66.3822 11.3885C66.2931 10.2184 66.5293 9.1033 67.0367 8.0547C67.7107 6.66171 68.7646 5.63954 70.1821 5.01039C70.7911 4.7401 71.4277 4.54879 72.0996 4.51116C72.5165 4.48782 72.9347 4.45362 73.3511 4.46542C74.1113 4.48695 74.8405 4.66059 75.5467 4.95159C76.2822 5.25464 76.9184 5.69704 77.4681 6.26146C78.0639 6.87309 78.4964 7.59699 78.8008 8.39103C79.1345 9.26157 79.3211 10.1634 79.3189 11.1024C79.3181 11.4695 79.3628 11.8366 79.3886 12.2311C76.2099 12.2311 73.0599 12.2311 69.9055 12.2311C70.0425 13.0154 70.3661 13.6716 70.9377 14.1987C71.4678 14.6875 72.1023 14.9541 72.8036 15.0637C73.9968 15.2501 75.1104 14.9852 76.1573 14.4153C76.3812 14.2935 76.5766 14.117 76.7778 13.9565C76.8708 13.8824 76.916 13.8231 77.0147 13.972C77.3825 14.5263 77.771 15.0669 78.1624 15.6278ZM70.8154 9.9119C72.5542 9.9119 74.2929 9.9119 76.033 9.9119C75.9452 8.60808 75.0922 7.23665 73.0644 7.1495C71.5606 7.08487 70.15 7.9699 69.8752 9.9119C70.173 9.9119 70.4695 9.9119 70.8154 9.9119Z" fill="#838383"/>
<path d="M110.796 32.958C111.505 32.7555 112.214 32.7113 112.921 32.7654C114.014 32.8491 115.049 33.1358 115.933 33.8244C116.058 33.9215 116.144 34.0679 116.249 34.1914C116.278 34.1745 116.307 34.1577 116.336 34.1408C116.336 33.8745 116.341 33.608 116.334 33.3419C116.324 32.9336 116.346 32.5185 116.279 32.1189C116.161 31.414 115.67 30.9782 115.041 30.7357C113.903 30.2974 112.763 30.4043 111.643 30.8403C110.984 31.0969 110.412 31.4915 109.875 31.9914C109.692 31.6674 109.518 31.3568 109.341 31.0479C109.13 30.68 108.917 30.3134 108.705 29.9465C108.602 29.7696 108.564 29.6402 108.8 29.5033C109.319 29.2032 109.797 28.8321 110.321 28.5452C111.055 28.1439 111.855 27.9122 112.686 27.805C113.168 27.7427 113.654 27.6535 114.136 27.6643C115.257 27.6894 116.377 27.7972 117.399 28.3121C118.581 28.907 119.338 29.8578 119.6 31.164C119.69 31.6141 119.746 32.0791 119.749 32.5377C119.762 35.1724 119.755 37.8072 119.755 40.442C119.755 40.5315 119.755 40.6211 119.755 40.7242C118.615 40.7242 117.489 40.7242 116.341 40.7242C116.341 40.3415 116.341 39.9586 116.341 39.608C115.91 39.8937 115.496 40.2101 115.044 40.4572C114.494 40.7575 113.891 40.9207 113.262 40.988C112.375 41.0831 111.503 41.078 110.653 40.7431C109.247 40.1895 108.309 39.246 108.004 37.7232C107.816 36.7816 107.883 35.8701 108.28 35.0015C108.753 33.9656 109.596 33.3441 110.665 33.006C110.703 32.994 110.738 32.9748 110.796 32.958ZM111.379 36.5067C111.194 37.2021 111.476 37.994 112.242 38.394C112.841 38.7066 113.474 38.8058 114.156 38.7173C114.657 38.6522 115.127 38.5338 115.57 38.2994C116.068 38.0361 116.464 37.7188 116.343 37.0549C116.297 36.7995 116.349 36.5275 116.329 36.2651C116.32 36.1467 116.277 35.9937 116.192 35.9253C115.933 35.714 115.667 35.4876 115.366 35.3546C114.618 35.0251 113.829 34.9169 113.019 35.0891C112.232 35.2565 111.627 35.6494 111.379 36.5067Z" fill="#838383"/>
<path d="M107.167 10.1597C107.167 12.6113 107.167 15.038 107.167 17.4796C106.03 17.4796 104.903 17.4796 103.757 17.4796C103.757 17.0015 103.757 16.5192 103.757 16.039C103.382 16.3236 103.031 16.6145 102.656 16.8713C101.952 17.3531 101.17 17.6426 100.322 17.7402C99.9182 17.7866 99.5113 17.8433 99.1074 17.8344C98.1702 17.8136 97.2658 17.6253 96.5039 17.0419C95.8752 16.5605 95.4807 15.9034 95.3294 15.1261C95.2417 14.6753 95.1824 14.2112 95.1804 13.7528C95.1672 10.8544 95.1737 7.95584 95.1737 5.05735C95.1737 4.96747 95.1737 4.87759 95.1737 4.77275C96.3107 4.77275 97.4373 4.77275 98.5933 4.77275C98.5933 4.85582 98.5933 4.94323 98.5933 5.03063C98.5933 7.6401 98.5712 10.2498 98.6049 12.8589C98.6172 13.8158 99.0276 14.4346 99.9412 14.6907C101.062 15.0049 102.105 14.7517 103.041 14.0622C103.112 14.0097 103.183 13.9557 103.252 13.9014C103.617 13.618 103.767 13.2773 103.761 12.7855C103.732 10.2094 103.747 7.63279 103.747 5.05636C103.747 4.96657 103.747 4.87678 103.747 4.7724C104.885 4.7724 106.012 4.7724 107.167 4.7724C107.167 6.55794 107.167 8.34643 107.167 10.1597Z" fill="#838383"/>
<path d="M96.7058 40.9858C96.0003 40.9151 95.3788 40.6871 94.829 40.2701C94.0941 39.7128 93.7317 38.9429 93.5933 38.0589C93.5281 37.6427 93.4944 37.2175 93.4932 36.7962C93.4847 33.964 93.4888 31.1318 93.4888 28.2996C93.4888 28.2099 93.4888 28.1201 93.4888 28.0157C94.6264 28.0157 95.7529 28.0157 96.9084 28.0157C96.9084 28.0998 96.9084 28.1873 96.9084 28.2747C96.9084 30.8757 96.8982 33.4768 96.9153 36.0776C96.9198 36.7517 97.1756 37.3517 97.7851 37.7074C98.0522 37.8633 98.3745 37.9601 98.6829 38.0026C99.3682 38.0971 100.05 38.0193 100.673 37.7069C101.176 37.4547 101.662 37.1558 101.986 36.671C102.039 36.5919 102.059 36.477 102.06 36.3785C102.063 33.6867 102.063 30.9949 102.063 28.3031C102.063 28.213 102.063 28.1228 102.063 28.017C103.198 28.017 104.324 28.017 105.466 28.017C105.466 32.2418 105.466 36.4733 105.466 40.7213C104.348 40.7213 103.222 40.7213 102.076 40.7213C102.076 40.2481 102.076 39.7654 102.076 39.2801C101.665 39.5838 101.279 39.8935 100.868 40.1668C100.284 40.5558 99.6338 40.8269 98.9437 40.9232C98.2832 41.0154 97.608 41.0039 96.9391 41.0326C96.8696 41.0356 96.7986 41.0023 96.7058 40.9858Z" fill="#838383"/>
<path d="M77.518 39.4371C76.6992 40.163 75.7887 40.6692 74.7275 40.9012C73.9608 41.0689 73.1948 41.0639 72.4202 40.9906C71.8275 40.9344 71.2835 40.7617 70.7711 40.4553C69.9495 39.9639 69.5055 39.2163 69.312 38.3132C69.2159 37.8649 69.1639 37.3987 69.1618 36.9402C69.1487 34.0582 69.1552 31.1761 69.1552 28.294C69.1552 28.2047 69.1552 28.1155 69.1552 28.0137C70.297 28.0137 71.4236 28.0137 72.5748 28.0137C72.5748 28.1048 72.5748 28.1928 72.5748 28.2809C72.5748 30.874 72.5541 33.4673 72.5841 36.06C72.5976 37.2271 73.3247 37.9503 74.5285 38.0181C75.1573 38.0535 75.7609 37.9836 76.3232 37.7089C76.8299 37.4614 77.3168 37.1688 77.6403 36.6822C77.6972 36.5965 77.7252 36.4754 77.7254 36.3705C77.7299 33.6784 77.729 30.9862 77.729 28.2941C77.729 28.2046 77.729 28.1152 77.729 28.0138C78.8707 28.0138 79.9973 28.0138 81.1363 28.0138C81.1363 32.2489 81.1363 36.4808 81.1363 40.7253C80.0067 40.7253 78.88 40.7253 77.7328 40.7253C77.7328 40.2407 77.7328 39.7591 77.7328 39.2775C77.7129 39.2638 77.6929 39.2502 77.673 39.2365C77.6256 39.2992 77.5782 39.3618 77.518 39.4371Z" fill="#838383"/>
<path d="M116.023 7.1375C115.77 7.10505 115.539 7.05549 115.306 7.04512C114.617 7.0144 113.948 7.09882 113.386 7.54262C113.113 7.75772 112.946 8.06683 113.025 8.4192C113.103 8.77019 113.398 8.97408 113.721 9.0612C114.484 9.26641 115.256 9.43807 116.027 9.61323C117.056 9.84713 118.083 10.0807 118.976 10.6895C119.915 11.3305 120.424 12.2008 120.51 13.3496C120.559 14.0197 120.462 14.6371 120.208 15.2515C119.971 15.8253 119.577 16.2654 119.112 16.6494C118.423 17.219 117.599 17.5234 116.739 17.6745C116.03 17.7993 115.295 17.8476 114.574 17.8279C113.52 17.799 112.487 17.583 111.5 17.1943C110.689 16.8746 109.933 16.4566 109.29 15.8319C109.779 15.0418 110.264 14.2568 110.731 13.5026C111.246 13.8172 111.731 14.1429 112.243 14.4186C113.025 14.8396 113.863 15.0771 114.753 15.1753C115.416 15.2485 116.045 15.1909 116.629 14.886C117.062 14.6602 117.408 14.1727 117.224 13.6193C117.096 13.2311 116.761 13.0418 116.404 12.9423C115.72 12.7518 115.028 12.5884 114.332 12.4435C113.424 12.2541 112.518 12.0627 111.682 11.6445C110.744 11.1749 110.041 10.4834 109.827 9.41994C109.6 8.29148 109.732 7.22273 110.473 6.27937C111.219 5.33067 112.225 4.85786 113.372 4.60426C114.124 4.4381 114.885 4.41277 115.639 4.47078C117.245 4.59427 118.724 5.09418 119.999 6.11534C120.029 6.1394 120.066 6.1547 120.132 6.19252C119.675 6.97233 119.221 7.74807 118.757 8.54085C118.194 7.98483 117.542 7.61708 116.828 7.35948C116.573 7.26773 116.306 7.21102 116.023 7.1375Z" fill="#838383"/>
<path d="M90.2676 4.7577C91.2877 4.7577 92.2831 4.7577 93.3257 4.7577C91.8831 6.85074 90.4669 8.90547 89.0443 10.9696C90.5535 13.1337 92.066 15.3023 93.5949 17.4945C92.3388 17.4945 91.1185 17.4971 89.8984 17.4881C89.8229 17.4875 89.7232 17.4124 89.6767 17.3436C88.8615 16.1364 88.0536 14.9243 87.2417 13.7148C87.1433 13.5683 87.0308 13.4311 86.9161 13.2779C86.545 13.8235 86.1776 14.366 85.8079 14.9069C85.2429 15.7334 84.6782 16.5601 84.1066 17.382C84.0667 17.4393 83.9713 17.4894 83.9014 17.4898C82.6966 17.4963 81.4916 17.4945 80.2639 17.4945C80.7061 16.8402 81.1344 16.1969 81.5728 15.5605C82.0367 14.8869 82.5119 14.2211 82.9789 13.5497C83.5324 12.7541 84.0809 11.9551 84.6351 11.1601C84.7333 11.0191 84.7124 10.9118 84.6161 10.7724C83.7872 9.57341 82.9664 8.36877 82.1439 7.16528C81.6469 6.43795 81.151 5.70988 80.6555 4.98147C80.6161 4.92354 80.5844 4.86035 80.5326 4.77115C80.6196 4.76553 80.6803 4.75823 80.741 4.7582C81.8639 4.75751 82.9868 4.75974 84.1097 4.7553C84.2632 4.75469 84.3496 4.80025 84.4399 4.93859C85.052 5.87712 85.6787 6.80612 86.3041 7.73599C86.5007 8.02835 86.7074 8.31393 86.9341 8.63779C87.1244 8.34562 87.3062 8.06212 87.4924 7.78152C88.1293 6.82138 88.7686 5.86278 89.4045 4.90196C89.471 4.80146 89.5368 4.74039 89.6736 4.75326C89.8618 4.77097 90.0529 4.7577 90.2676 4.7577Z" fill="#838383"/>
<path d="M83.2005 30.9541C83.1838 29.9651 83.1838 28.9932 83.1838 28.0008C83.8811 28.0008 84.5619 28.0008 85.2539 28.0008C85.2539 26.8432 85.2539 25.7061 85.2539 24.5505C86.3917 24.5505 87.5182 24.5505 88.6651 24.5505C88.6651 25.6783 88.6651 26.8214 88.6651 27.985C89.5307 27.985 90.3766 27.985 91.2405 27.985C91.2405 28.983 91.2405 29.9609 91.2405 30.9593C90.4086 30.9593 89.5627 30.9593 88.6815 30.9593C88.6815 31.0577 88.6815 31.136 88.6815 31.2143C88.6815 33.0389 88.6711 34.8636 88.688 36.6881C88.6929 37.2199 88.8492 37.7151 89.4021 37.9513C89.7562 38.1026 90.1208 38.0399 90.4718 37.9273C90.6432 37.8722 90.8002 37.7721 90.9889 37.68C91.0886 38.0008 91.2022 38.342 91.3004 38.6876C91.4334 39.1554 91.5598 39.6252 91.6749 40.0976C91.6909 40.1631 91.6486 40.2736 91.5955 40.3201C91.1191 40.7377 90.532 40.9094 89.9251 40.9765C89.3809 41.0366 88.8238 41.0698 88.2799 41.025C87.0074 40.9201 85.9552 40.3786 85.4833 39.0286C85.3398 38.6183 85.2757 38.1611 85.2714 37.7244C85.2505 35.5698 85.2619 33.4148 85.2619 31.26C85.2619 31.1714 85.2619 31.0828 85.2619 30.9712C84.5667 30.9712 83.892 30.9712 83.2005 30.9541Z" fill="#838383"/>
<path d="M126.396 28.794C126.396 32.7819 126.396 36.745 126.396 40.7229C125.276 40.7229 124.165 40.7229 123.041 40.7229C123.041 34.8756 123.041 29.0249 123.041 23.1592C124.147 23.1592 125.257 23.1592 126.396 23.1592C126.396 25.0269 126.396 26.8981 126.396 28.794Z" fill="#838383"/>
<path d="M3.16305 10.3709C3.52139 10.327 3.86204 10.2547 4.19981 10.2663C5.08308 10.2966 5.89011 10.5723 6.59903 11.1136C7.31424 11.6597 7.80197 12.3736 8.01663 13.2358C8.34253 14.5449 8.1528 15.7798 7.30744 16.8716C6.63557 17.7393 5.75053 18.2369 4.66406 18.3883C3.4057 18.5637 2.31752 18.2134 1.36267 17.381C0.602187 16.718 0.149823 15.8798 0.0349257 14.9019C-0.10123 13.743 0.152888 12.6643 0.935177 11.7384C1.52806 11.0366 2.26401 10.5993 3.16305 10.3709Z" fill="#838383"/>
<path d="M18.1951 34.4613C18.6715 35.2756 18.7867 36.151 18.6944 37.0465C18.6179 37.788 18.3172 38.4589 17.8446 39.045C17.284 39.7404 16.5833 40.2192 15.7134 40.4455C14.4256 40.7806 13.2393 40.5652 12.1703 39.7754C11.3472 39.1674 10.8306 38.3383 10.6457 37.3414C10.4114 36.0782 10.6653 34.9138 11.4934 33.8928C12.1493 33.0841 13.0075 32.619 14.0097 32.4755C15.2201 32.3023 16.3316 32.5871 17.2944 33.3941C17.6574 33.6983 17.9255 34.0637 18.1951 34.4613Z" fill="#838383"/>
<path d="M32.9263 24.0907C33.442 23.0756 34.2293 22.3716 35.2846 22.024C36.593 21.5929 37.8522 21.7756 38.9727 22.5863C39.8562 23.2255 40.4437 24.0831 40.61 25.1907C40.7473 26.1055 40.6668 26.9914 40.2237 27.8152C39.7113 28.7679 38.9443 29.4398 37.908 29.7722C36.5819 30.1974 35.3202 30.0195 34.1898 29.2183C33.2815 28.5746 32.7401 27.6721 32.5756 26.5505C32.4504 25.6975 32.5579 24.8877 32.9263 24.0907Z" fill="#838383"/>
</svg>
