<svg width="184" height="34" viewBox="0 0 184 34" fill="none" xmlns="http://www.w3.org/2000/svg">
<path fill-rule="evenodd" clip-rule="evenodd" d="M32.9396 16.142C36.3843 14.1532 38.3941 10.3748 38.1179 6.40674L21.7367 15.8644L21.3123 9.76777L5.20348 19.0682C1.75875 21.057 -0.251016 24.8354 0.0252269 28.8035L16.4064 19.3458L16.8308 25.4424L32.9396 16.142Z" fill="#B1A7EB"/>
<path d="M56.2472 27.3623C61.2255 27.3623 66.3513 23.8959 66.3513 17.4056C66.3513 10.9154 61.2255 7.44902 56.2472 7.44902C51.232 7.44902 46.1431 10.9154 46.1431 17.4056C46.1431 23.8959 51.232 27.3623 56.2472 27.3623ZM51.0107 17.4056C51.0107 13.9761 53.4815 11.9111 56.2472 11.9111C59.0129 11.9111 61.4468 13.9761 61.4468 17.4056C61.4468 20.8351 59.0129 22.9002 56.2472 22.9002C53.4815 22.9002 51.0107 20.8351 51.0107 17.4056Z" fill="white"/>
<path d="M69.582 6.56399V7.81779H67.1482V11.7636H69.582V26.9935H74.5235V11.7636H79.4649V7.81779H74.5235V7.11714C74.5235 5.23644 75.4454 4.20391 77.3261 4.20391C77.6579 4.20391 78.543 4.16703 79.4649 4.60954V0.737529C78.3955 0.11063 77.031 0 76.0354 0C73.4909 0 69.582 0.92191 69.582 6.56399Z" fill="white"/>
<path d="M82.9612 6.56399V7.81779H80.5274V11.7636H82.9612V26.9935H87.9027V11.7636H92.8441V7.81779H87.9027V7.11714C87.9027 5.23644 88.8246 4.20391 90.7053 4.20391C91.0371 4.20391 91.9222 4.16703 92.8441 4.60954V0.737529C91.7747 0.11063 90.4103 0 89.4146 0C86.8701 0 82.9612 0.92191 82.9612 6.56399Z" fill="white"/>
<path d="M94.1889 26.9935H99.1304V18.6226C99.1304 14.7874 101.454 12.2061 105.178 12.2061C105.621 12.2061 105.989 12.243 106.432 12.3167V7.59653C105.989 7.4859 105.584 7.44902 105.141 7.44902C101.675 7.44902 99.7941 9.84599 99.1304 12.7961V7.81779H94.1889V26.9935Z" fill="white"/>
<path d="M116.261 27.3623C119.691 27.3623 121.904 25.4816 122.383 24.4121H122.494V26.9935H127.435V7.81779H122.494V10.3991H122.383C121.904 9.32972 119.691 7.44902 116.261 7.44902C111.799 7.44902 107.042 10.7679 107.042 17.4056C107.042 24.0434 111.799 27.3623 116.261 27.3623ZM111.91 17.4056C111.91 13.8286 114.491 11.8742 117.257 11.8742C120.023 11.8742 122.604 13.7918 122.604 17.4056C122.604 21.0195 120.023 22.9371 117.257 22.9371C114.491 22.9371 111.91 20.9826 111.91 17.4056Z" fill="white"/>
<path d="M142.661 26.9935H147.602V16.0781C147.602 13.3492 149.151 11.8742 151.327 11.8742C153.465 11.8742 154.867 13.3492 154.867 16.0781V26.9935H159.845V15.8568C159.845 9.99349 156.895 7.44902 152.838 7.44902C149.704 7.44902 147.602 8.8872 146.496 10.6573C145.316 8.44469 143.251 7.44902 140.891 7.44902C138.199 7.44902 136.428 8.66594 135.396 10.2885V7.81779H130.455V26.9935H135.396V16.0781C135.396 13.3492 136.945 11.8742 139.12 11.8742C141.222 11.8742 142.661 13.3492 142.661 16.0781V26.9935Z" fill="white"/>
<path d="M162.848 34H167.79V24.4121H167.9C168.38 25.4816 170.592 27.3623 174.022 27.3623C178.484 27.3623 183.241 24.0434 183.241 17.4056C183.241 10.7679 178.484 7.44902 174.022 7.44902C170.592 7.44902 168.38 9.32972 167.9 10.3991H167.79V7.81779H162.848V34ZM167.679 17.4056C167.679 13.7918 170.26 11.8742 173.026 11.8742C175.792 11.8742 178.373 13.8286 178.373 17.4056C178.373 20.9826 175.792 22.9371 173.026 22.9371C170.26 22.9371 167.679 21.0195 167.679 17.4056Z" fill="white"/>
</svg>
