<svg width="31" height="24" viewBox="0 0 31 24" fill="none" xmlns="http://www.w3.org/2000/svg">
<path d="M9.7489 24C21.447 24 27.8454 14.7657 27.8454 6.75771C27.8454 6.49546 27.8454 6.23436 27.8269 5.97442C29.0716 5.11653 30.1461 4.05442 31 2.83765C29.8393 3.32772 28.6078 3.64904 27.347 3.79107C28.6744 3.03396 29.6685 1.84223 30.1431 0.439242C28.8947 1.14506 27.5287 1.64257 26.1045 1.91019C24.9019 0.691745 23.2223 0 21.467 0C17.9746 0 15.1008 2.73814 15.1008 6.06562C15.1008 6.52725 15.1562 6.98743 15.2656 7.43705C10.1544 7.19297 5.38558 4.88946 2.15759 1.1056C0.478986 3.85886 1.34753 7.4269 4.12669 9.19506C3.11465 9.1665 2.12435 8.90633 1.24 8.43657V8.51335C1.24085 11.3871 3.38621 13.8848 6.34259 14.4538C5.40629 14.6971 4.42368 14.7326 3.47079 14.5577C4.30192 17.0202 6.6986 18.7176 9.41286 18.7661C7.16112 20.4522 4.37796 21.3681 1.51404 21.3654C1.00798 21.3644 0.502418 21.3352 0 21.2779C2.90831 23.0562 6.29324 23.9997 9.7489 23.9953" fill="white"/>
</svg>
